<?xml version="1.0" standalone="no"?><!DOCTYPE svg PUBLIC "-//W3C//DTD SVG 1.1//EN" "http://www.w3.org/Graphics/SVG/1.1/DTD/svg11.dtd"><svg t="1718596512408" class="icon" viewBox="0 0 1024 1024" version="1.1" xmlns="http://www.w3.org/2000/svg" p-id="4281" width="128" height="128" xmlns:xlink="http://www.w3.org/1999/xlink"><path d="M423.607795 132.568615a114.425436 114.425436 0 1 0 0 228.850872 114.425436 114.425436 0 0 0 0-228.850872z m0 163.367385l-48.968205-48.941949 48.968205-48.968205 48.941949 48.968205-48.941949 48.941949zM639.514256 51.2a79.872 79.872 0 1 0 0 159.730872 79.872 79.872 0 0 0 0-159.730872z m0 114.03159l-34.172718-34.15959 34.172718-34.172718 34.15959 34.172718-34.15959 34.15959zM947.2 486.4H76.8A25.6 25.6 0 0 0 51.2 512v247.466667s17.066667 104.08041 59.733333 143.36c73.386667 67.544615 143.36 69.973333 143.36 69.973333h515.413334s69.973333-2.428718 143.36-69.973333c42.666667-39.27959 59.733333-143.36 59.733333-143.36V512a25.6 25.6 0 0 0-25.6-25.6zM512 863.547077L378.052923 729.6 512 595.626667l133.960205 133.960205L512 863.547077zM406.580513 450.56c-23.538872-46.08-69.12-71.968821-121.501539-71.968821-52.381538 0-97.962667 25.888821-121.501538 71.968821h243.003077z m249.698461 0l66.665026-66.665026 66.651897 66.665026h102.452513c-3.032615-92.16-77.561436-163.498667-169.091282-163.498667-91.556103 0-166.071795 71.338667-169.117538 163.498667h102.452513z" p-id="4282" fill="#ffffff"></path></svg>